<svg width="259" height="130" viewBox="0 0 259 130" fill="none" xmlns="http://www.w3.org/2000/svg">
<g clip-path="url(#clip0_2602_369)">
<path d="M196.435 79.4232C204.416 79.4232 210.816 72.8403 210.816 64.6987C210.816 56.5571 204.416 50.0292 196.435 50.0292C188.453 50.0292 182.053 56.6121 182.053 64.6987C182.071 72.7669 188.525 79.4232 196.435 79.4232ZM176.84 44.6931H216.101V84.7409H176.84V44.6931Z" fill="#7D7485"/>
<path fill-rule="evenodd" clip-rule="evenodd" d="M119.528 70.7682C117.227 75.8659 112.23 79.4232 106.387 79.4232C98.6391 79.4232 92.2932 73.1153 92.0056 65.2671H126.036V44.6931H86.7922V84.7409H126.054V70.7682H119.528ZM92.6348 60.3345H120.05C118.036 53.5132 112.643 50.0292 106.405 50.0292C100.167 50.0292 94.3605 53.7515 92.6348 60.3345Z" fill="#7D7485"/>
<path d="M81.5059 44.6931H42.2441V84.7409H81.5059V70.7682H74.9982C72.7511 75.8659 67.6996 79.4232 61.911 79.4232C53.9292 79.4232 47.4754 72.7852 47.4754 64.6987C47.4754 56.6121 53.9292 50.0292 61.911 50.0292C67.8074 50.0292 72.8589 53.6965 75.1061 58.9042H81.5059V44.6931Z" fill="#7D7485"/>
<path d="M171.932 70.7682H165.424C163.465 76.0309 158.18 79.3682 152.175 79.3682C144.427 79.3682 137.902 73.6471 137.902 64.6987V44.6931H131.268V84.7409H171.932V70.7682Z" fill="#7D7485"/>
</g>
<defs>
<clipPath id="clip0_2602_369">
<rect width="174.017" height="40.1578" fill="white" transform="translate(42.1724 44.6199)"/>
</clipPath>
</defs>
</svg>
