<svg width="259" height="130" viewBox="0 0 259 130" fill="none" xmlns="http://www.w3.org/2000/svg">
<mask id="mask0_2602_357" style="mask-type:alpha" maskUnits="userSpaceOnUse" x="27" y="32" width="204" height="65">
<g clip-path="url(#clip0_2602_357)">
<path d="M75.7963 54.7289C75.7963 53.4539 76.0422 52.3272 76.534 51.3441C76.9906 50.4025 77.7073 49.6117 78.5992 49.0654C79.4836 48.5289 80.5067 48.2606 81.6654 48.2606C82.7815 48.2606 83.7778 48.5368 84.6543 49.0891C85.5308 49.6414 86.215 50.4146 86.7084 51.4119C87.2018 52.4093 87.4477 53.547 87.4477 54.8205V55.7862H78.9034C78.9476 56.5547 79.2234 57.1749 79.7295 57.6514C80.2371 58.128 80.9039 58.3647 81.7316 58.3647C82.293 58.3699 82.8466 58.2314 83.3395 57.9623C83.8314 57.694 84.3674 57.2317 84.9475 56.5689L86.8818 58.6661C86.2165 59.4472 85.4472 60.0579 84.5786 60.4966C83.6941 60.9371 82.7179 61.1615 81.73 61.1515C80.5555 61.1515 79.5198 60.8832 78.6212 60.3467C77.7218 59.8085 76.997 59.0216 76.534 58.0806C76.0422 57.1039 75.7947 55.9882 75.7947 54.7305V54.7274L75.7963 54.7289ZM84.3169 53.3924C84.2946 53.0713 84.2094 52.7578 84.066 52.4697C83.9226 52.1816 83.724 51.9246 83.4814 51.7133C82.9825 51.2683 82.3334 51.0297 81.6654 51.0458C80.9244 51.0458 80.3175 51.262 79.8383 51.6913C79.3606 52.1205 79.0642 52.6886 78.9476 53.3955H84.3169V53.3924ZM96.9048 51.5524V56.4553C96.9048 56.8687 96.9947 57.1686 97.176 57.3516C97.3573 57.5362 97.6584 57.6278 98.0777 57.6278H100.709V60.8059H97.7955C96.5202 60.8059 95.5349 60.4871 94.8397 59.8496C94.1429 59.2137 93.7961 58.3031 93.7961 57.1228V51.5524H90.9695V48.6047H93.7961V45.496H96.9048V48.6047H101.426V51.5524H96.9048ZM105.383 44.0016H108.492V49.7329H108.536C109.346 48.7514 110.456 48.2606 111.862 48.2606C112.656 48.2475 113.435 48.4717 114.101 48.9045C114.753 49.3353 115.259 49.9412 115.622 50.7239C115.985 51.5051 116.166 52.4124 116.166 53.4397V60.8059H113.057V53.8784C113.057 53.0641 112.862 52.4266 112.471 51.9674C112.078 51.5066 111.542 51.2762 110.863 51.2762C110.122 51.2762 109.542 51.5035 109.122 51.9548C108.701 52.4077 108.492 53.0341 108.492 53.8326V60.8075H105.383V44V44.0016ZM119.361 54.7289C119.361 53.4539 119.607 52.3272 120.101 51.3441C120.557 50.4025 121.274 49.6117 122.166 49.0654C123.049 48.5289 124.07 48.2606 125.23 48.2606C126.346 48.2606 127.343 48.5368 128.219 49.0891C129.097 49.6414 129.782 50.4146 130.275 51.4119C130.765 52.4093 131.014 53.547 131.014 54.8205V55.7862H122.47C122.514 56.5547 122.788 57.1749 123.296 57.6514C123.804 58.128 124.471 58.3647 125.297 58.3647C125.875 58.3647 126.413 58.2321 126.905 57.9623C127.398 57.694 127.934 57.2317 128.513 56.5689L130.448 58.6661C129.811 59.4248 129.028 60.0473 128.145 60.4966C127.261 60.9366 126.285 61.161 125.298 61.1515C124.124 61.1515 123.086 60.8832 122.189 60.3467C121.29 59.8086 120.565 59.0216 120.102 58.0806C119.609 57.1039 119.361 55.9866 119.361 54.7289ZM127.884 53.3924C127.861 53.0713 127.776 52.7577 127.633 52.4696C127.489 52.1815 127.291 51.9245 127.048 51.7133C126.549 51.2683 125.9 51.0297 125.232 51.0458C124.493 51.0458 123.884 51.262 123.405 51.6913C122.927 52.1205 122.629 52.6886 122.514 53.3955H127.884V53.3924ZM135.275 48.6047H138.253V49.7329H138.296C138.789 49.2122 139.3 48.835 139.83 48.6047C140.359 48.3743 140.963 48.2575 141.646 48.2575C142.645 48.2575 143.508 48.5699 144.231 49.1917C144.956 49.8118 145.464 50.6592 145.754 51.7339L142.841 52.7469C142.51 51.7496 141.819 51.2494 140.776 51.2494C139.994 51.2494 139.399 51.4908 138.994 51.9753C138.588 52.4582 138.384 53.1225 138.384 53.9668V60.8043H135.275V48.6062V48.6047ZM148.406 54.7289C148.406 53.4539 148.652 52.3272 149.143 51.3441C149.6 50.4027 150.317 49.612 151.209 49.0654C152.091 48.5289 153.114 48.2606 154.273 48.2606C155.389 48.2606 156.386 48.5368 157.264 49.0891C158.14 49.6414 158.824 50.4146 159.318 51.4119C159.81 52.4093 160.056 53.547 160.056 54.8205V55.7862H151.514C151.557 56.5547 151.833 57.1749 152.34 57.6514C152.848 58.128 153.513 58.3647 154.341 58.3647C154.918 58.3647 155.456 58.2321 155.949 57.9623C156.441 57.694 156.978 57.2317 157.557 56.5689L159.493 58.6661C158.826 59.4472 158.058 60.0579 157.188 60.4966C156.304 60.9369 155.328 61.1613 154.341 61.1515C153.167 61.1515 152.131 60.8832 151.232 60.3467C150.333 59.8081 149.608 59.0213 149.145 58.0806C148.653 57.1039 148.406 55.9866 148.406 54.7289ZM156.928 53.3924C156.905 53.0712 156.82 52.7575 156.676 52.4694C156.533 52.1813 156.334 51.9244 156.091 51.7133C155.592 51.2682 154.943 51.0296 154.275 51.0458C153.537 51.0458 152.928 51.262 152.449 51.6913C151.97 52.1205 151.674 52.6886 151.557 53.3955H156.926L156.928 53.3924ZM163.579 56.662V48.6047H166.685V55.9014C166.685 57.3911 167.381 58.1343 168.773 58.1343C169.398 58.1343 169.893 57.9323 170.263 57.5236C170.632 57.1181 170.818 56.5768 170.818 55.9014V48.6047H173.924V60.8027H170.947V59.7202H170.903C170.585 60.151 170.146 60.495 169.588 60.757C169.041 61.0161 168.444 61.1498 167.838 61.1483C166.475 61.1483 165.425 60.7538 164.686 59.9648C163.948 59.1726 163.577 58.0712 163.577 56.6604L163.579 56.662ZM177.122 48.6047H179.862V49.6635H179.906C180.15 49.2501 180.467 48.9313 180.85 48.7088C181.234 48.4879 181.658 48.3743 182.123 48.3743C183.037 48.3743 183.767 48.8272 184.317 49.7314H184.361C184.94 48.8272 185.737 48.3743 186.753 48.3743C187.591 48.3743 188.274 48.6899 188.794 49.3179C189.317 49.9475 189.578 50.7681 189.578 51.7796V60.8059H186.707V52.3572C186.707 52.0053 186.62 51.737 186.447 51.5524C186.272 51.3678 186.026 51.2762 185.707 51.2762C185.57 51.2703 185.434 51.295 185.308 51.3485C185.181 51.402 185.069 51.483 184.978 51.5855C184.798 51.7938 184.706 52.0747 184.706 52.4266V60.8059H181.989V52.3572C181.989 52.0195 181.905 51.7544 181.74 51.5634C181.572 51.3741 181.338 51.2747 181.032 51.2747C180.89 51.2682 180.749 51.2927 180.618 51.3464C180.486 51.4001 180.368 51.4817 180.272 51.5855C180.083 51.7938 179.988 52.0747 179.988 52.4266V60.8059H177.119V48.6047H177.122ZM79.2739 77.2062H76.2314V74.2601H79.2739V72.4659C79.2739 71.3912 79.6112 70.5438 80.2844 69.9221C80.9591 69.3019 81.8892 68.9895 83.0778 68.9895H86.4262V71.912H83.4467C83.1441 71.912 82.9107 71.9956 82.7531 72.1644C82.5923 72.3349 82.5135 72.5716 82.5135 72.8793V74.2601H87.1214V77.2062H82.5135V85.1026H79.2739V77.2062ZM90.3169 79.002C90.3169 77.7443 90.5644 76.6271 91.0578 75.6534C91.5198 74.7126 92.2393 73.9224 93.1324 73.3748C94.0247 72.8304 95.0415 72.5574 96.1875 72.5574C97.3462 72.5574 98.3725 72.8304 99.2632 73.3748C100.157 73.9225 100.877 74.7126 101.339 75.6534C101.833 76.6271 102.079 77.7443 102.079 79.002C102.079 80.2613 101.831 81.3753 101.339 82.3521C100.877 83.2927 100.157 84.0824 99.2632 84.6292C98.3725 85.1736 97.3462 85.4466 96.1875 85.4466C95.0415 85.4466 94.0247 85.1736 93.1324 84.6292C92.239 84.0821 91.5191 83.2925 91.0562 82.3521C90.5644 81.3753 90.3169 80.2597 90.3169 79.002ZM98.97 79.002C98.97 77.9289 98.7272 77.0879 98.2416 76.4803C97.7561 75.8744 97.0719 75.5714 96.1875 75.5714C95.3174 75.5714 94.6395 75.8744 94.1539 76.4803C93.6684 77.0879 93.4256 77.9289 93.4256 79.002C93.4256 80.0766 93.6684 80.9161 94.1539 81.5237C94.6395 82.1296 95.3174 82.4326 96.1875 82.4326C97.0562 82.4326 97.7372 82.1249 98.2306 81.511C98.724 80.8988 98.97 80.0608 98.97 79.002ZM105.49 80.9572V72.903H108.599V80.1997C108.599 81.6878 109.294 82.4326 110.686 82.4326C111.309 82.4326 111.805 82.229 112.176 81.8219C112.545 81.4164 112.729 80.8751 112.729 80.1981V72.9014H115.838V85.101H112.86V84.0201H112.816C112.471 84.4697 112.019 84.8256 111.501 85.0553C110.954 85.3143 110.356 85.448 109.751 85.4466C108.389 85.4466 107.339 85.0521 106.598 84.2615C105.861 83.4709 105.49 82.3679 105.49 80.9572ZM119.904 72.9014H123.014V74.0533H123.056C123.521 73.561 124.021 73.1886 124.556 72.9361C125.092 72.6836 125.7 72.5574 126.384 72.5574C127.136 72.5574 127.838 72.742 128.49 73.1192C129.143 73.4963 129.673 74.0707 130.078 74.8471C130.483 75.6203 130.686 76.5829 130.686 77.7349V85.101H127.578V78.1735C127.578 77.3908 127.389 76.7612 127.012 76.2847C126.635 75.8097 126.093 75.5698 125.382 75.5698C124.642 75.5698 124.062 75.797 123.643 76.2484C123.222 76.7012 123.012 77.3277 123.012 78.1262V85.101H119.905V72.8998L119.904 72.9014ZM133.644 79.002C133.644 77.7743 133.869 76.6697 134.319 75.6882C134.768 74.7051 135.397 73.9381 136.21 73.3843C137.023 72.832 137.987 72.5434 138.969 72.5574C140.274 72.5574 141.296 72.9251 142.035 73.662H142.078V68.2983H145.185V85.1026H142.316V84.0438H142.273C141.419 84.9795 140.303 85.4482 138.926 85.4482C137.911 85.4482 137.003 85.1799 136.199 84.6434C135.395 84.1053 134.765 83.3494 134.317 82.3758C133.868 81.4022 133.642 80.277 133.642 79.0036H133.644V79.002ZM142.078 79.7831V78.1972C142.078 77.7364 141.961 77.3072 141.731 76.9064C141.497 76.5055 141.164 76.1722 140.763 75.9391C140.345 75.6929 139.867 75.5658 139.382 75.5714C138.569 75.5714 137.929 75.8823 137.459 76.5024C136.986 77.1257 136.751 77.9573 136.751 79.002C136.751 80.0293 136.989 80.8577 137.468 81.4858C137.948 82.1154 138.578 82.4294 139.36 82.4294C140.14 82.4294 140.791 82.1722 141.305 81.6594C141.819 81.1449 142.078 80.5201 142.078 79.7831ZM149.121 81.8345C149.121 80.6984 149.487 79.8147 150.219 79.1866C150.95 78.5586 152.173 78.0978 153.882 77.8059C154.781 77.6528 155.394 77.4792 155.719 77.2883C156.047 77.0973 156.207 76.8385 156.207 76.515C156.21 76.3406 156.168 76.1685 156.084 76.0155C156 75.8625 155.878 75.734 155.73 75.6424C155.413 75.4262 154.976 75.3189 154.426 75.3189C153.803 75.3189 153.263 75.5177 152.806 75.9186C152.348 76.3178 152.057 76.8464 151.926 77.506L149.033 76.8164C149.178 75.9864 149.504 75.2495 150.012 74.6041C150.522 73.9577 151.178 73.4413 151.926 73.0971C152.708 72.733 153.562 72.5481 154.425 72.5558C155.903 72.5558 157.084 72.9929 157.97 73.8656C158.853 74.7429 159.294 75.9091 159.294 77.3656V85.0995H156.513V83.7424H156.469C156.137 84.2789 155.668 84.6955 155.066 84.9953C154.467 85.2951 153.789 85.4435 153.034 85.4435C152.281 85.4435 151.606 85.292 151.013 84.9858C150.436 84.696 149.954 84.2484 149.621 83.695C149.285 83.1322 149.112 82.4869 149.121 81.8314V81.8345ZM156.338 80.5674V79.1866H156.297C156.145 79.436 155.916 79.6297 155.645 79.7389C155.34 79.8778 154.861 80.0167 154.21 80.154C153.398 80.3386 152.839 80.5327 152.536 80.741C152.392 80.8329 152.274 80.9608 152.193 81.1121C152.113 81.2634 152.074 81.433 152.079 81.6041C152.071 81.7619 152.103 81.919 152.174 82.0603C152.244 82.2016 152.35 82.3222 152.481 82.4105C152.749 82.5951 153.137 82.6867 153.644 82.6867C154.108 82.6867 154.551 82.592 154.97 82.3979C155.391 82.2038 155.723 81.945 155.971 81.6168C156.217 81.2885 156.34 80.9382 156.34 80.569L156.338 80.5674ZM169.513 75.8491V80.752C169.513 81.1655 169.603 81.4653 169.785 81.6483C169.965 81.8345 170.265 81.9261 170.687 81.9261H173.318V85.101H170.405C169.128 85.101 168.143 84.7823 167.449 84.1463C166.754 83.5088 166.405 82.5999 166.405 81.4179V75.8475H163.579V72.903H166.405V69.7943H169.514V72.903H174.035V75.8507H169.516L169.513 75.8491ZM188.991 82.087V85.101H177.666V82.087H181.774V75.917H177.88V72.903H184.883V82.087H188.991ZM181.708 67.746H184.905V70.9904H181.708V67.746ZM191.971 79.002C191.971 77.7443 192.217 76.6271 192.708 75.6534C193.17 74.712 193.89 73.9216 194.785 73.3748C195.675 72.8304 196.695 72.5574 197.838 72.5574C198.998 72.5574 200.025 72.8304 200.915 73.3748C201.809 73.9223 202.529 74.7125 202.992 75.6534C203.483 76.6271 203.729 77.7443 203.729 79.002C203.729 80.2613 203.483 81.3753 202.992 82.3521C202.53 83.2931 201.809 84.083 200.915 84.6292C200.025 85.1736 198.998 85.4466 197.838 85.4466C196.695 85.4466 195.675 85.1736 194.785 84.6292C193.891 84.0821 193.171 83.2925 192.708 82.3521C192.217 81.3753 191.971 80.2597 191.971 79.002ZM200.622 79.002C200.622 77.9289 200.379 77.0879 199.892 76.4803C199.407 75.8744 198.723 75.5714 197.838 75.5714C196.97 75.5714 196.292 75.8744 195.806 76.4803C195.321 77.0879 195.078 77.9289 195.078 79.002C195.078 80.0766 195.319 80.9161 195.806 81.5237C196.292 82.1296 196.97 82.4326 197.838 82.4326C198.708 82.4326 199.389 82.1249 199.881 81.511C200.375 80.8972 200.622 80.0608 200.622 79.002ZM207.037 72.9014H210.144V74.0533H210.188C210.613 73.5901 211.122 73.2111 211.687 72.9361C212.26 72.6754 212.884 72.546 213.513 72.5574C214.268 72.5574 214.969 72.742 215.622 73.1192C216.275 73.4963 216.804 74.0707 217.21 74.8471C217.615 75.6203 217.818 76.5829 217.818 77.7349V85.101H214.709V78.1735C214.709 77.3908 214.52 76.7612 214.143 76.2847C213.767 75.8097 213.223 75.5698 212.512 75.5698C211.774 75.5698 211.194 75.797 210.774 76.2484C210.354 76.7012 210.144 77.3277 210.144 78.1262V85.101H207.037V72.9014Z" fill="white"/>
<path d="M46.2327 80.2312V95.5727L28.6459 68.3708L46.2327 80.2312Z" fill="#18ABD3"/>
<path d="M63.8208 68.3708L46.2324 95.5727V80.2312L63.8208 68.3708Z" fill="#6B7ABA"/>
<path d="M63.8208 64.5379L46.2324 53.9573V76.3998L63.8208 64.5379Z" fill="#A566A6"/>
<path d="M63.8208 64.5378L46.2324 32.209V53.9556L63.8208 64.5378Z" fill="#F08A78"/>
<path d="M46.2327 32.209V53.9556L28.6459 64.5394L46.2327 32.209Z" fill="#FFEB5C"/>
<path d="M46.2327 53.9556V76.3997L28.6459 64.5377L46.2327 53.9556Z" fill="#58B36F"/>
</g>
</mask>
<g mask="url(#mask0_2602_357)">
<rect x="20.703" y="29.364" width="209.921" height="70.1076" fill="#7D7485"/>
</g>
<defs>
<clipPath id="clip0_2602_357">
<rect width="203.02" height="64.6987" fill="white" transform="translate(27.6056 32.209)"/>
</clipPath>
</defs>
</svg>
