<svg width="259" height="130" viewBox="0 0 259 130" fill="none" xmlns="http://www.w3.org/2000/svg">
<g clip-path="url(#clip0_2602_347)">
<path d="M50.7673 75.2906C48.1812 75.2906 46.0623 74.7111 44.4107 73.552C42.7808 72.3723 41.9658 70.6958 41.9658 68.5227C41.9658 68.0673 42.0202 67.5085 42.1288 66.8462C42.4113 65.3561 42.8134 63.5657 43.3349 61.4753C44.8127 55.7836 48.6267 52.9377 54.7768 52.9377C56.4502 52.9377 57.9497 53.2068 59.2753 53.7449C60.601 54.2624 61.6441 55.0489 62.4047 56.1044C63.1653 57.1393 63.5456 58.3811 63.5456 59.8299C63.5456 60.2645 63.4914 60.813 63.3827 61.4753C63.0566 63.3173 62.6655 65.1076 62.2092 66.8462C61.4485 69.6818 60.1337 71.8032 58.2648 73.2105C56.3958 74.5972 53.8967 75.2906 50.7673 75.2906ZM51.2236 70.82C52.4406 70.82 53.4729 70.4786 54.3205 69.7955C55.1897 69.1126 55.8091 68.0673 56.1785 66.6599C56.6784 64.7144 57.0586 63.0172 57.3195 61.5684C57.4064 61.1338 57.4499 60.6888 57.4499 60.2335C57.4499 58.35 56.4175 57.4083 54.353 57.4083C53.136 57.4083 52.0929 57.7498 51.2236 58.4328C50.3761 59.1158 49.7676 60.161 49.3982 61.5684C49.007 62.9551 48.6158 64.6523 48.2246 66.6599C48.1377 67.0739 48.0942 67.5085 48.0942 67.9638C48.0942 69.868 49.1374 70.82 51.2236 70.82Z" fill="#7D7485"/>
<path d="M66.8526 74.9802C66.6135 74.9802 66.4288 74.9078 66.2985 74.763C66.1898 74.5973 66.1572 74.411 66.2006 74.2041L70.6991 54.0244C70.7426 53.7968 70.8622 53.6105 71.0578 53.4656C71.2533 53.3207 71.4598 53.2483 71.6771 53.2483H80.3481C82.7604 53.2483 84.6945 53.7243 86.1505 54.6764C87.6283 55.6285 88.3673 57.0048 88.3673 58.8055C88.3673 59.3229 88.3021 59.861 88.1717 60.4198C87.6283 62.8 86.5309 64.5592 84.8793 65.6976C83.2494 66.8359 81.0109 67.4051 78.164 67.4051H73.7633L72.2638 74.2041C72.2204 74.4317 72.1008 74.618 71.9052 74.763C71.7097 74.9078 71.5033 74.9802 71.2859 74.9802H66.8526ZM78.3923 63.1208C79.305 63.1208 80.0983 62.8828 80.7719 62.4068C81.4674 61.9307 81.9237 61.2477 82.141 60.3577C82.2062 60.0059 82.2389 59.6954 82.2389 59.4264C82.2389 58.8262 82.0541 58.3708 81.6847 58.0604C81.3153 57.7292 80.685 57.5636 79.794 57.5636H75.8822L74.6435 63.1208H78.3923Z" fill="#7D7485"/>
<path d="M95.7108 74.9802C95.4718 74.9802 95.287 74.9078 95.1566 74.763C95.0262 74.5973 94.9828 74.411 95.0262 74.2041L98.6446 58.1225H92.8422C92.6031 58.1225 92.4184 58.05 92.288 57.9051C92.1793 57.7396 92.1468 57.5533 92.1903 57.3463L92.94 54.0244C92.9835 53.7968 93.1029 53.6105 93.2985 53.4656C93.4941 53.3207 93.7006 53.2483 93.9179 53.2483H111.456C111.695 53.2483 111.879 53.3207 112.01 53.4656C112.097 53.5898 112.14 53.714 112.14 53.8382C112.14 53.9002 112.129 53.9623 112.108 54.0244L111.358 57.3463C111.314 57.574 111.195 57.7603 110.999 57.9051C110.825 58.05 110.619 58.1225 110.38 58.1225H104.61L100.992 74.2041C100.948 74.4317 100.829 74.618 100.633 74.763C100.437 74.9078 100.231 74.9802 100.014 74.9802H95.7108Z" fill="#7D7485"/>
<path d="M112.974 74.9802C112.735 74.9802 112.551 74.9078 112.42 74.763C112.29 74.5973 112.246 74.411 112.29 74.2041L116.821 54.0244C116.864 53.7968 116.984 53.6105 117.18 53.4656C117.375 53.3207 117.582 53.2483 117.799 53.2483H122.2C122.439 53.2483 122.623 53.3207 122.754 53.4656C122.841 53.5898 122.884 53.714 122.884 53.8382C122.884 53.9002 122.873 53.9623 122.852 54.0244L118.353 74.2041C118.31 74.4317 118.19 74.618 117.995 74.763C117.799 74.9078 117.593 74.9802 117.375 74.9802H112.974Z" fill="#7D7485"/>
<path d="M125.385 74.9802C125.146 74.9802 124.961 74.9078 124.831 74.763C124.701 74.618 124.657 74.4317 124.701 74.2041L129.199 54.0244C129.242 53.7968 129.362 53.6105 129.558 53.4656C129.753 53.3207 129.971 53.2483 130.21 53.2483H133.73C134.252 53.2483 134.588 53.476 134.741 53.9313L138.294 63.7107L146.215 53.9313C146.324 53.7657 146.476 53.6105 146.671 53.4656C146.889 53.3207 147.15 53.2483 147.454 53.2483H151.007C151.246 53.2483 151.431 53.3207 151.561 53.4656C151.648 53.5898 151.692 53.714 151.692 53.8382C151.692 53.9002 151.681 53.9623 151.659 54.0244L147.16 74.2041C147.117 74.4317 146.997 74.618 146.802 74.763C146.606 74.9078 146.4 74.9802 146.182 74.9802H142.238C141.999 74.9802 141.814 74.9078 141.684 74.763C141.575 74.5973 141.543 74.411 141.586 74.2041L144.129 62.7483L139.141 69.0506C138.924 69.2782 138.718 69.4541 138.522 69.5783C138.326 69.7025 138.098 69.7646 137.837 69.7646H136.142C135.686 69.7646 135.371 69.5266 135.197 69.0506L132.883 62.4689L130.275 74.2041C130.231 74.4317 130.112 74.618 129.916 74.763C129.721 74.9078 129.514 74.9802 129.297 74.9802H125.385Z" fill="#7D7485"/>
<path d="M154.159 74.9802C153.92 74.9802 153.735 74.9078 153.605 74.763C153.474 74.5973 153.431 74.411 153.474 74.2041L158.005 54.0244C158.049 53.7968 158.168 53.6105 158.364 53.4656C158.559 53.3207 158.766 53.2483 158.983 53.2483H163.384C163.623 53.2483 163.808 53.3207 163.938 53.4656C164.025 53.5898 164.068 53.714 164.068 53.8382C164.068 53.9002 164.058 53.9623 164.036 54.0244L159.537 74.2041C159.494 74.4317 159.375 74.618 159.178 74.763C158.983 74.9078 158.776 74.9802 158.559 74.9802H154.159Z" fill="#7D7485"/>
<path d="M174.623 75.2906C172.711 75.2906 171.07 75.0422 169.701 74.5455C168.353 74.0488 167.331 73.3865 166.637 72.5586C165.963 71.7307 165.626 70.8097 165.626 69.7955C165.626 69.63 165.648 69.3816 165.691 69.0505C165.735 68.8641 165.822 68.7089 165.952 68.5848C166.104 68.4606 166.278 68.3985 166.474 68.3985H170.646C170.907 68.3985 171.102 68.4399 171.232 68.5227C171.385 68.6055 171.537 68.7503 171.689 68.9573C171.841 69.4954 172.189 69.9404 172.733 70.2922C173.297 70.6441 174.069 70.82 175.046 70.82C176.285 70.82 177.286 70.6337 178.046 70.2612C178.807 69.8887 179.263 69.3816 179.414 68.7399C179.437 68.6572 179.447 68.533 179.447 68.3674C179.447 67.85 179.111 67.4464 178.437 67.1567C177.763 66.8462 176.524 66.484 174.721 66.0701C172.613 65.6354 171.015 64.9834 169.929 64.1142C168.842 63.2242 168.299 62.0652 168.299 60.6371C168.299 60.1403 168.365 59.6333 168.495 59.1158C168.929 57.191 170.005 55.6801 171.722 54.5832C173.46 53.4862 175.698 52.9377 178.437 52.9377C180.088 52.9377 181.556 53.2172 182.838 53.776C184.12 54.3348 185.109 55.0489 185.805 55.9181C186.522 56.7667 186.879 57.6153 186.879 58.4639C186.879 58.7122 186.869 58.8882 186.847 58.9916C186.804 59.1779 186.706 59.3331 186.554 59.4573C186.424 59.5815 186.26 59.6436 186.065 59.6436H181.697C181.219 59.6436 180.893 59.4677 180.719 59.1158C180.697 58.6398 180.436 58.2362 179.936 57.905C179.437 57.5739 178.785 57.4083 177.981 57.4083C177.024 57.4083 176.232 57.5739 175.601 57.905C174.993 58.2362 174.612 58.7226 174.461 59.3642C174.439 59.4677 174.427 59.6022 174.427 59.7678C174.427 60.2645 174.731 60.6785 175.34 61.0096C175.97 61.3201 177.068 61.6409 178.632 61.972C181.067 62.4274 182.838 63.0793 183.946 63.9279C185.076 64.7765 185.641 65.9044 185.641 67.3118C185.641 67.7879 185.576 68.3053 185.446 68.8641C184.968 70.9753 183.805 72.5793 181.957 73.6762C180.133 74.7525 177.688 75.2906 174.623 75.2906Z" fill="#7D7485"/>
<path d="M189.967 74.9802C189.728 74.9802 189.543 74.9078 189.413 74.763C189.283 74.618 189.239 74.4317 189.283 74.2041L193.781 54.0244C193.824 53.7968 193.944 53.6105 194.14 53.4656C194.335 53.3207 194.553 53.2483 194.792 53.2483H198.312C198.834 53.2483 199.171 53.476 199.323 53.9313L202.876 63.7107L210.797 53.9313C210.906 53.7657 211.058 53.6105 211.254 53.4656C211.471 53.3207 211.731 53.2483 212.036 53.2483H215.589C215.829 53.2483 216.013 53.3207 216.143 53.4656C216.231 53.5898 216.274 53.714 216.274 53.8382C216.274 53.9002 216.263 53.9623 216.241 54.0244L211.743 74.2041C211.699 74.4317 211.579 74.618 211.384 74.763C211.188 74.9078 210.982 74.9802 210.764 74.9802H206.82C206.581 74.9802 206.396 74.9078 206.266 74.763C206.157 74.5973 206.124 74.411 206.168 74.2041L208.711 62.7483L203.723 69.0506C203.506 69.2782 203.299 69.4541 203.104 69.5783C202.909 69.7025 202.68 69.7646 202.42 69.7646H200.724C200.268 69.7646 199.953 69.5266 199.779 69.0506L197.465 62.4689L194.857 74.2041C194.813 74.4317 194.693 74.618 194.498 74.763C194.303 74.9078 194.096 74.9802 193.879 74.9802H189.967Z" fill="#7D7485"/>
</g>
<defs>
<clipPath id="clip0_2602_347">
<rect width="174.307" height="23.241" fill="white" transform="translate(41.9653 52.9377)"/>
</clipPath>
</defs>
</svg>
