<svg width="259" height="130" viewBox="0 0 259 130" fill="none" xmlns="http://www.w3.org/2000/svg">
<path fill-rule="evenodd" clip-rule="evenodd" d="M75.3947 31.2465V33.849H91.877H108.359V31.2465V28.644H91.877H75.3947V31.2465ZM128.445 44.325C122.851 45.3874 119.246 48.9006 118.435 54.0797C118.253 55.2412 118.334 57.8107 118.58 58.6908L118.712 59.164L121.146 59.4255C122.485 59.5694 123.874 59.6935 124.234 59.7016L124.887 59.7161L124.756 59.1317C124.683 58.8102 124.577 57.9407 124.52 57.1995C124.224 53.3608 125.897 50.5598 129.06 49.599C129.945 49.3303 130.448 49.2828 131.905 49.3314C133.493 49.3844 133.782 49.4412 134.725 49.8853C136.653 50.7937 137.682 52.2744 138.122 54.7717C138.616 57.5743 137.857 61.2063 136.21 63.9171C133.925 67.6804 129.183 72.1898 121.253 78.14L117.981 80.596V83.0106V85.4254H131.628H145.275L145.232 82.7835L145.188 80.1416L135.984 80.1009L126.78 80.0602L128.293 78.9642C133.905 74.8996 138.74 70.3309 141.162 66.8038C143.916 62.7942 145.082 58.7181 144.636 54.6627C144.286 51.4888 143.362 49.4312 141.412 47.4876C139.964 46.0439 138.365 45.1496 136.198 44.57C134.569 44.1342 130.179 43.9955 128.445 44.325ZM166.218 44.2526C161.09 45.1871 157.396 48.5284 155.313 54.1168C154.069 57.4549 153.583 60.6866 153.571 65.7097C153.561 69.7345 153.774 71.7529 154.5 74.5142C156.167 80.8487 159.758 84.5339 165.298 85.5935C166.624 85.8472 169.986 85.852 171.264 85.6022C175.677 84.7398 179.165 82.0069 180.79 78.1391C182.231 74.71 182.401 69.9883 181.213 66.4478C179.443 61.1747 175.475 58.3066 169.873 58.2494C165.433 58.2039 162.192 59.7419 159.982 62.9431L159.432 63.7381L159.534 62.1608C159.984 55.1404 162.356 50.6765 166.324 49.3804C167.697 48.9317 170.245 48.9636 171.479 49.4448C173.213 50.1206 174.666 52.0365 175.262 54.4322C175.37 54.866 175.472 55.2436 175.489 55.2713C175.523 55.3259 181.426 54.1783 181.525 54.098C181.639 54.0065 180.721 51.2788 180.257 50.3265C178.827 47.3951 176.375 45.4171 173.106 44.558C171.704 44.1897 167.57 44.0064 166.218 44.2526ZM75.818 44.519C75.7587 44.5783 75.7101 53.8065 75.7101 65.0262V85.4254H78.72H81.7297L81.6774 68.7845L81.6248 52.1435L82.0108 53.0514C82.7724 54.8422 83.7231 56.5248 92.0794 70.8709L100.552 85.417L104.298 85.4211L108.044 85.4254V64.9174V44.4095L105.165 44.4524L102.287 44.4955V61.179C102.287 71.3028 102.231 77.7213 102.144 77.5036C101.411 75.6623 98.9567 71.2764 91.7496 58.9274L83.3267 44.4955L79.6263 44.4532C77.5911 44.43 75.8775 44.4597 75.818 44.519ZM170.074 63.2603C172.86 63.8507 174.837 65.8914 175.656 69.0219C176.012 70.3831 176.011 73.2892 175.655 74.7492C174.662 78.8197 171.893 80.998 167.934 80.8248C166.594 80.7663 166.315 80.698 165.246 80.1698C162.509 78.8173 160.534 75.7972 159.861 71.9354C159.646 70.7029 159.65 70.5615 159.933 69.7405C161.609 64.8674 165.606 62.3135 170.074 63.2603ZM75.3947 98.6744V101.356H91.877H108.359V98.6744V95.993H91.877H75.3947V98.6744Z" fill="#7D7485"/>
</svg>
