<svg width="259" height="130" viewBox="0 0 259 130" fill="none" xmlns="http://www.w3.org/2000/svg">
<path d="M90.5579 82.401V55.5269H82.9235V47.6457H106.755V55.5288H99.1201V82.4028H90.5602L90.5579 82.401Z" fill="#7D7485"/>
<path d="M28 65.1624C28 54.3754 36.283 47 46.7412 47C53.0345 47 58.7263 49.5344 62.3816 54.9745L54.8387 58.8917C52.8022 56.126 50.1642 54.6516 46.833 54.6516C40.9556 54.6516 36.8376 59.2146 36.8376 65.2071C36.8376 71.1997 41.3266 75.6712 46.5557 75.6712C50.8593 75.6712 53.96 73.0902 54.5146 69.6787V69.632H47.204V63.0871H64.0942V64.5614C64.0942 75.9008 57.2912 83 46.4639 83C36.2361 83 28 75.6712 28 65.1624Z" fill="#7D7485"/>
<path d="M69.9658 82.401V47.6457H78.5262V82.401H69.9658Z" fill="#7D7485"/>
<path d="M182.207 82.401V47.6457H190.767V82.401H182.207Z" fill="#7D7485"/>
<path d="M222.623 47.6457H231V82.401H224.059L206.567 60.5061L206.706 82.401H198.284V47.6457H205.411L222.903 69.4025L222.625 47.6457H222.623Z" fill="#7D7485"/>
<path d="M127.495 75.1188C122.174 75.1188 117.685 70.9702 117.685 65.0243C117.685 59.4012 121.989 54.9297 127.589 54.9297C130.347 54.9297 132.754 55.9692 134.506 57.6899C135.351 55.0025 136.666 52.4887 138.414 50.2417C135.353 48.2056 131.629 47.0467 127.634 47.0467C117.361 47.0467 108.846 54.6983 108.846 64.9776C108.846 75.7645 117.406 83 127.495 83C131.524 83 135.276 81.8763 138.354 79.8797C136.627 77.6347 135.325 75.1057 134.491 72.3848C132.713 74.098 130.27 75.1188 127.495 75.1188Z" fill="#7D7485"/>
<path d="M158.18 47.0467C151.734 47.0467 145.98 50.0607 142.587 54.8457C140.575 57.6861 139.392 61.1499 139.392 64.9776C139.392 68.8053 140.571 72.4893 142.568 75.326C145.953 80.1353 151.696 83 158.042 83C168.361 83 176.877 75.6246 176.877 65.0691C176.877 54.5135 168.408 47.0467 158.18 47.0467ZM158.042 75.1188C152.721 75.1188 148.232 70.9702 148.232 65.0243C148.232 59.4012 152.535 54.9297 158.136 54.9297C163.736 54.9297 168.039 59.3546 168.039 65.0709C168.039 70.7873 163.736 75.1188 158.044 75.1188H158.042Z" fill="#7D7485"/>
</svg>
