<svg width="259" height="130" viewBox="0 0 259 130" fill="none" xmlns="http://www.w3.org/2000/svg">
<path fill-rule="evenodd" clip-rule="evenodd" d="M85.7885 24.3036C81.6875 25.4932 79.4387 28.0916 79.2189 31.8939C79.1196 33.614 79.1889 34.0284 79.808 35.41C80.6458 37.2798 82.1805 38.7872 84.216 39.7398C85.49 40.3358 85.9779 40.4162 88.335 40.4182C90.8112 40.4203 91.1313 40.3613 92.6641 39.6217C94.6881 38.6451 95.9909 37.4242 96.9053 35.6472C97.8488 33.8129 97.898 31.1025 97.023 29.1437C96.2868 27.4956 94.3922 25.6804 92.5047 24.815C90.7903 24.0289 87.5787 23.7846 85.7885 24.3036ZM119.403 24.3638C117.833 24.6801 112.699 25.2779 108.389 25.6462C106.556 25.8031 106.415 25.8564 106.415 26.3943C106.415 26.8533 106.599 27.0079 107.299 27.1395C108.473 27.3601 109.614 28.3582 110.027 29.5255C110.296 30.2845 110.362 35.4026 110.362 55.2134V79.9534L109.797 81.0131C109.116 82.2873 108.214 83.0397 106.89 83.4371C106.11 83.671 105.906 83.8569 105.906 84.3326V84.9325L116.283 84.8659C126.441 84.8009 126.662 84.7886 126.732 84.2892C126.792 83.8653 126.538 83.7011 125.229 83.318C123.429 82.7911 122.359 81.8308 121.957 80.3795C121.814 79.8646 121.702 76.8609 121.707 73.7046L121.716 67.966L122.949 67.0146L124.181 66.0633L130.004 74.5244C133.207 79.178 136.143 83.4226 136.53 83.9564L137.232 84.9268H144.742H152.253V84.3091C152.253 83.8207 152.052 83.6253 151.298 83.3779C150.723 83.1894 149.734 82.4427 148.815 81.5036C147.487 80.1469 133.091 60.28 132.781 59.3754C132.657 59.0119 138.478 54.1086 141.768 51.8057C144.123 50.1576 147.31 48.5714 149.133 48.1401C150.259 47.8736 150.47 47.7328 150.47 47.2464V46.6693H142.321H134.172L134.178 47.2431C134.182 47.6372 134.44 47.9369 135.003 48.1996C136.235 48.775 136.638 49.6748 136.247 50.9811C135.724 52.73 134.071 54.4054 127.806 59.5378L121.822 64.4404L121.757 44.205C121.705 28.2541 121.624 23.9761 121.375 24.0001C121.2 24.0169 120.313 24.1807 119.403 24.3638ZM173.468 46.04C172.75 46.3986 170.972 47.8267 169.471 49.2514L166.768 51.8167V48.7214V45.6258L165.94 45.7656C163.611 46.1589 161.539 46.3966 159.065 46.555C156.652 46.7093 156.327 46.7853 156.327 47.1941C156.327 47.5497 156.599 47.6991 157.491 47.8331C159.03 48.0641 160.012 48.9226 160.371 50.3494C160.749 51.8537 160.767 79.2874 160.391 80.6443C160.016 81.9966 158.876 83.029 157.354 83.3948C156.256 83.6582 156.073 83.7903 156.073 84.3147V84.9268H164.094H172.116V84.3117C172.116 83.7847 171.96 83.6717 171.033 83.5246C169.235 83.2392 167.888 82.4623 167.365 81.4087C166.93 80.5344 166.889 79.494 166.819 67.5444L166.742 54.6253L168.559 52.8338C171.635 49.802 172.684 49.6261 177.628 51.3132C180.64 52.3411 180.824 52.3727 181.978 52.0636C183.443 51.6713 184.421 50.9503 186.001 49.0981C186.993 47.9348 187.148 47.6231 186.889 47.3115C186.613 46.9779 186.514 46.9779 186.038 47.3115C185.158 47.9289 183.872 47.754 180.384 46.5427C176.507 45.1966 175.329 45.1109 173.468 46.04ZM95.7199 46.2071C92.9473 46.7006 84.3889 47.601 80.4408 47.8144C78.9701 47.894 77.0508 48.0223 76.1753 48.0996C74.6184 48.2371 74.5837 48.2564 74.5837 48.9851C74.5837 49.6521 74.6683 49.7299 75.3946 49.7299C76.8514 49.7299 78.307 50.647 78.9612 51.9769L79.5495 53.173V72.4294C79.5495 89.9939 79.509 91.8846 79.0893 93.951C78.0661 98.9885 76.3859 101.463 72.7513 103.285C71.6257 103.849 70.5465 104.311 70.3524 104.311C70.1207 104.311 70 104.611 70 105.187C70 106.027 70.0344 106.06 70.8276 105.961C71.2829 105.904 72.8012 105.73 74.2018 105.574C79.4306 104.991 85.2002 103.474 88.4623 101.823C93.14 99.4573 96.2598 95.8402 97.6604 91.1577C98.0724 89.7805 98.1205 87.9693 98.199 70.8991C98.2463 60.5886 98.2524 50.7182 98.2122 48.9647L98.1391 45.7766L95.7199 46.2071Z" fill="#7D7485"/>
</svg>
