<svg width="259" height="130" viewBox="0 0 259 130" fill="none" xmlns="http://www.w3.org/2000/svg">
<path fill-rule="evenodd" clip-rule="evenodd" d="M99.7943 30.1508C99.2348 31.0898 98.104 35.7498 97.5809 39.2748C96.6901 45.2735 96.7039 61.335 97.6052 67.2342C98.3931 72.393 99.5839 76.3989 100.278 76.2268C103.827 75.3477 110.647 73.976 113.94 73.4797C119.935 72.576 137.787 72.5788 143.752 73.4839C147.961 74.1229 156.861 75.9839 157.441 76.3463C157.615 76.4547 158.081 75.4833 158.476 74.1874C160.798 66.5881 161.505 51.2726 160.051 40.121C159.271 34.1409 158.18 30.0358 157.398 30.1413C157.137 30.1767 154.35 30.7502 151.205 31.4162C144.136 32.913 139.976 33.3971 131.966 33.6554C125.11 33.8762 117.834 33.4132 111.348 32.343C107.787 31.7555 102.251 30.5826 100.537 30.0523C100.219 29.9541 99.8851 29.9983 99.7943 30.1508ZM106.679 35.8652C111.749 36.9199 117.83 37.6529 123.646 37.9098L128.846 38.1398L128.936 53.0775L129.027 68.0152L124.603 68.2549C118.58 68.582 111.997 69.37 107.007 70.3617C104.246 70.9106 102.772 71.0669 102.623 70.8268C101.424 68.8901 100.499 50.7745 101.25 43.9236C101.942 37.6112 102.391 35.1602 102.857 35.1602C103.096 35.1602 104.815 35.4775 106.679 35.8652ZM109.16 42.3897C109.024 42.5264 108.914 47.423 108.914 53.2713V63.9041H111.374H113.833L113.713 59.0138C113.648 56.3238 113.694 54.2339 113.817 54.3692C113.94 54.5042 114.625 56.7052 115.339 59.2595L116.636 63.9041H119.02H121.403L121.311 53.1252L121.22 42.3462H118.967H116.713L116.597 46.5526L116.48 50.759L115.037 46.5526L113.594 42.3462L111.499 42.2439C110.348 42.1874 109.295 42.253 109.16 42.3897ZM144.272 53.0375V63.9041H142.018H139.765V53.0375V42.1709H142.018H144.272V53.0375ZM123.127 86.2514C120.212 87.724 120.559 90.2955 124.045 93.0658C125.719 94.3961 126.256 95.0309 126.177 95.5861C126.017 96.7268 124.618 96.7709 124.114 95.6513C123.781 94.9124 123.47 94.7512 122.377 94.7512C121.122 94.7512 121.046 94.8125 121.046 95.8298C121.046 96.5543 121.379 97.2445 122.06 97.933C122.96 98.8433 123.311 98.9576 125.206 98.9576C127.102 98.9576 127.452 98.8433 128.353 97.933C130.27 95.9945 129.485 93.4321 126.305 91.2469C124.515 90.0165 123.996 89.3536 124.359 88.7605C124.725 88.1622 125.96 88.4265 126.146 89.1426C126.293 89.7129 126.618 89.8437 127.89 89.8437H129.453L129.234 88.7377C128.955 87.3265 128.429 86.6969 127.037 86.1087C125.55 85.4799 124.583 85.5153 123.127 86.2514ZM218.222 85.8658C216.893 86.1543 215.679 87.5932 215.693 88.8629C215.71 90.5006 216.275 91.3471 218.635 93.2695C220.996 95.1928 221.379 96.3286 219.667 96.3286C218.852 96.3286 218.603 96.1575 218.516 95.5399C218.42 94.8574 218.199 94.7512 216.87 94.7512C215.553 94.7512 215.334 94.8535 215.334 95.4698C215.334 96.4832 216.258 98.1692 217.048 98.5965C218.018 99.1213 221.107 99.0386 222.216 98.4581C223.264 97.9102 224 96.5939 224 95.2668C224 94.3712 222.116 92.2319 219.761 90.4526C218.943 89.8342 218.551 89.2951 218.677 88.9628C218.969 88.1927 220.221 88.321 220.433 89.1426C220.579 89.7073 220.906 89.8437 222.114 89.8437C222.938 89.8437 223.686 89.7238 223.775 89.5773C224.076 89.0848 223.023 87.0976 222.158 86.5241C221.228 85.9079 219.42 85.6054 218.222 85.8658ZM34.0298 86.1431C34.025 86.2503 34.0163 89.1384 34.0107 92.5603L34 98.7823L35.406 98.8899L36.8116 98.9979L36.8342 95.9104L36.8564 92.8232L37.9327 95.8904L39.0087 98.9576H40.518H42.0269L41.9326 92.5603L41.838 86.1631L40.5381 86.0544L39.2382 85.9454L39.2215 88.8587L39.2052 91.7716L38.0949 88.9673L36.985 86.1631L35.5117 86.0554C34.7016 85.9959 34.0347 86.0355 34.0298 86.1431ZM47.4214 86.6012C47.3209 86.9388 46.8311 89.5019 46.3329 92.2974C45.8348 95.0929 45.3436 97.7349 45.2417 98.1689C45.0701 98.8976 45.1741 98.9576 46.6158 98.9576C47.9906 98.9576 48.2017 98.8535 48.3934 98.0812C48.5529 97.438 48.842 97.2049 49.4794 97.2049C50.0868 97.2049 50.4469 97.4682 50.6774 98.0812C50.9537 98.8156 51.2328 98.9576 52.402 98.9576C53.1695 98.9576 53.7972 98.7956 53.7972 98.5976C53.7972 98.1514 51.75 87.4446 51.5035 86.6012C51.3614 86.1157 50.936 85.9878 49.4642 85.9878C47.9937 85.9878 47.566 86.1161 47.4214 86.6012ZM55.7617 86.2216C55.6345 86.3499 55.5305 86.9809 55.5305 87.6237C55.5305 88.7237 55.6012 88.7921 56.7344 88.7921H57.9379L58.0343 93.7872L58.1303 98.7823L59.7769 98.8892L61.4234 98.9961V93.8941V88.7921H62.6367C63.8212 88.7921 63.85 88.7588 63.85 87.3899V85.9878H59.9214C57.7604 85.9878 55.8886 86.093 55.7617 86.2216ZM66.9698 92.4727V98.9961L68.6163 98.8892L70.2629 98.7823V92.4727V86.1631L68.6163 86.0562L66.9698 85.9492V92.4727ZM73.572 86.2507C73.5806 86.3951 74.2497 89.2741 75.0584 92.648L76.5285 98.7823L78.1508 98.8885C79.6036 98.9839 79.7911 98.9106 79.9457 98.1875C80.4231 95.9563 82.2221 86.5266 82.2221 86.2574C82.2221 86.087 81.5594 85.9959 80.7489 86.0554L79.2757 86.1631L78.7709 89.5808C78.4933 91.4607 78.1726 92.9985 78.0586 92.9985C77.9445 92.9985 77.6527 91.7758 77.4104 90.2818C76.6765 85.7568 76.802 85.9878 75.0785 85.9878C74.241 85.9878 73.5633 86.1063 73.572 86.2507ZM85.5004 86.426C85.4037 86.6812 85.3676 89.5657 85.4199 92.8362L85.5153 98.7823L89.0684 98.8822L92.6215 98.9821V97.5677V96.1533H90.7149H88.8084V94.9264C88.8084 93.7062 88.8167 93.6996 90.3683 93.6996H91.9282V92.2974V90.8953H90.3683C88.8663 90.8953 88.8084 90.8564 88.8084 89.8437C88.8084 88.8012 88.8254 88.7921 90.7357 88.7921H92.6634L92.5556 87.4776L92.4482 86.1631L89.0625 86.0628C86.5015 85.9867 85.6335 86.0754 85.5004 86.426ZM101.882 86.2051C101.746 86.3425 101.634 89.2681 101.634 92.7065V98.9576H103.375H105.116L105.022 92.5603L104.927 86.1631L103.528 86.059C102.759 86.0018 102.018 86.0674 101.882 86.2051ZM109.26 92.4727V98.9576H110.634H112.007L112.107 95.8904L112.207 92.8232L113.247 95.8028L114.287 98.7823L115.76 98.8899L117.233 98.9979V92.4716V85.9454L115.933 86.0544L114.633 86.1631L114.46 88.7921L114.287 91.4211L113.45 89.1426C112.359 86.1711 112.194 85.9878 110.605 85.9878H109.26V92.4727ZM132.37 86.2216C132.243 86.3499 132.139 86.9809 132.139 87.6237C132.139 88.7237 132.21 88.7921 133.343 88.7921H134.546L134.643 93.7872L134.739 98.7823H136.299H137.859L137.955 93.7872L138.051 88.7921H139.255C140.428 88.7921 140.459 88.7567 140.459 87.3899V85.9878H136.53C134.369 85.9878 132.497 86.093 132.37 86.2216ZM143.925 92.424V98.9576H145.485H147.045V96.304C147.045 93.7532 147.075 93.655 147.825 93.7627C148.41 93.8468 148.627 94.137 148.694 94.9264C148.743 95.5048 148.87 96.6486 148.975 97.4678L149.167 98.9576H150.673H152.179L151.999 96.7667C151.901 95.562 151.607 94.1244 151.346 93.573C150.94 92.7135 150.946 92.4643 151.385 91.8298C152.186 90.6744 152.04 88.2975 151.102 87.1943C150.374 86.339 150.031 86.2426 147.115 86.0744L143.925 85.8907V92.424ZM155.958 86.2051C155.822 86.3425 155.711 88.8072 155.711 91.6819V96.9084L156.724 97.933C157.62 98.8384 157.98 98.9576 159.825 98.9576C161.531 98.9576 162.09 98.8034 162.884 98.1121L163.857 97.267V91.7148V86.1631L162.22 86.0565L160.583 85.9503L160.487 91.1393C160.407 95.475 160.305 96.3286 159.871 96.3286C159.44 96.3286 159.321 95.4522 159.177 91.2458L159.004 86.1631L157.605 86.059C156.835 86.0018 156.094 86.0674 155.958 86.2051ZM167.843 92.4727V98.9576H169.23H170.617L170.65 95.3646L170.683 91.7716L171.43 95.277C172.134 98.5811 172.226 98.7823 173.043 98.7823C173.858 98.7823 173.951 98.5836 174.603 95.4522L175.296 92.1222L175.395 95.5399L175.495 98.9576H176.869H178.243V92.4552V85.9527L176.25 86.0579L174.256 86.1631L173.763 88.8797C173.492 90.3737 173.167 91.5964 173.042 91.5964C172.917 91.5964 172.546 90.3344 172.218 88.7921L171.623 85.9878H169.733H167.843V92.4727ZM182.056 92.4727V98.9576H185.696H189.335V97.5554V96.1533H187.429H185.522V94.9464C185.522 93.7774 185.568 93.7364 186.996 93.6319C188.428 93.5275 188.469 93.4903 188.469 92.2974C188.469 91.1042 188.427 91.0656 186.917 90.8953C185.539 90.7396 185.365 90.6219 185.365 89.8437C185.365 89.0343 185.504 88.9593 187.177 88.8615L188.989 88.7553V87.3717V85.9878H185.522H182.056V92.4727ZM193.149 92.4937V99L194.448 98.891L195.748 98.7823L195.922 95.8294L196.095 92.8765L197.07 95.917L198.045 98.9576H199.583H201.121V92.4727V85.9878H199.749H198.377L198.276 88.7044L198.175 91.4211L197.187 88.7044L196.198 85.9878H194.673H193.149V92.4937ZM204.588 87.3899C204.588 88.7588 204.617 88.7921 205.801 88.7921H207.014V93.8748V98.9576H208.574H210.134V93.8748V88.7921H211.347C212.532 88.7921 212.561 88.7588 212.561 87.3899V85.9878H208.574H204.588V87.3899ZM148.233 88.6417C148.533 88.9449 148.778 89.4858 148.778 89.8437C148.778 90.5269 147.917 91.5964 147.367 91.5964C147.19 91.5964 147.045 90.8077 147.045 89.8437C147.045 88.0079 147.326 87.724 148.233 88.6417ZM50.1069 93.6119C50.2958 94.6534 50.2379 94.7512 49.4323 94.7512C48.7601 94.7512 48.5906 94.6057 48.7186 94.1377C48.8104 93.8005 49.0007 92.7356 49.1408 91.7716L49.3959 90.0189L49.6479 91.2458C49.7866 91.9206 49.9932 92.9855 50.1069 93.6119Z" fill="#7D7485"/>
</svg>
