<svg width="259" height="130" viewBox="0 0 259 130" fill="none" xmlns="http://www.w3.org/2000/svg">
<path d="M58.3855 48.0322C58.9795 46.9521 59.8166 46.007 60.8428 45.3319L78.098 33.2883L60.4107 62.5331C60.4107 62.5331 58.8715 59.9138 58.2504 58.5906C56.7383 55.2151 56.7923 51.3536 58.3855 48.0322ZM51.2566 68.2038C51.6616 73.8745 54.47 79.0862 58.9795 82.5157L78.071 95.8284C78.071 95.8284 66.1355 78.6002 56.0362 61.48C55.01 59.6707 54.3349 57.6995 54.0109 55.6472C53.8759 54.7291 53.8759 53.784 54.0109 52.8388C53.7409 53.3249 53.2278 54.324 53.2278 54.324C52.2017 56.4033 51.4996 58.6446 51.1755 60.9399C51.0135 63.3432 51.0135 65.8005 51.2566 68.2038ZM99.9438 70.5261C99.3227 69.2029 97.7835 66.5836 97.7835 66.5836L80.1233 95.8284L97.3785 83.7848C98.4046 83.1097 99.2417 82.1646 99.8358 81.0845C101.429 77.763 101.483 73.9016 99.9438 70.5261ZM106.965 60.9129C106.56 55.2422 103.751 50.0305 99.2417 46.601L80.1773 33.2883C80.1773 33.2883 92.1128 50.5165 102.212 67.6367C103.238 69.446 103.913 71.4172 104.237 73.4695C104.372 74.3876 104.372 75.3327 104.237 76.2779C104.507 75.7918 105.02 74.7927 105.02 74.7927C106.047 72.7134 106.749 70.4721 107.073 68.1768C107.262 65.7465 107.262 63.3162 107.019 60.8859L106.965 60.9129Z" fill="#7D7485"/>
<path d="M125.271 81.0304V48.6803C125.271 48.5993 125.352 48.5182 125.434 48.5182H145.983C146.064 48.5182 146.145 48.5993 146.145 48.6803V52.8118C146.145 52.8928 146.064 52.9738 145.983 52.9738H130.24V62.506H143.661C143.742 62.506 143.823 62.587 143.823 62.6681V66.7456C143.823 66.8266 143.742 66.9076 143.661 66.9076H130.24V76.7369H146.01C146.091 76.7369 146.172 76.8179 146.172 76.8989V81.0304C146.172 81.1114 146.091 81.1924 146.01 81.1924H125.461C125.352 81.1924 125.271 81.1384 125.271 81.0304ZM176.416 81.1114L161.375 58.2125V81.0304C161.375 81.1114 161.294 81.1924 161.213 81.1924H156.568C156.487 81.1924 156.406 81.1114 156.406 81.0304V48.7073C156.406 48.6263 156.487 48.5453 156.568 48.5453H160.862C160.916 48.5453 160.97 48.5723 160.997 48.6263L176.065 71.4982V48.7343C176.065 48.6533 176.146 48.5722 176.227 48.5722H180.872C180.953 48.5722 181.034 48.6533 181.034 48.7343V81.0574C181.034 81.1384 180.953 81.2194 180.872 81.2194H176.578C176.497 81.1924 176.443 81.1654 176.416 81.1114ZM196.21 74.9276V76.4668C198.208 76.8989 200.233 77.1419 202.258 77.1689C204.257 77.1149 206.255 76.8989 208.226 76.4668V69.1489L191.403 63.2621C191.349 63.2351 191.295 63.1811 191.295 63.1001V49.6524C191.295 49.5714 191.322 49.5174 191.403 49.4904C194.913 48.5182 198.532 47.9782 202.177 47.9512C205.823 48.0052 209.468 48.5182 213.006 49.4904C213.087 49.5174 213.114 49.5714 213.114 49.6524V54.729C213.114 54.8101 213.033 54.8911 212.952 54.8911H208.388C208.307 54.8911 208.226 54.8101 208.226 54.729V53.1898C206.228 52.7578 204.203 52.5148 202.177 52.4878C200.179 52.5148 198.181 52.7578 196.21 53.1898L196.237 60.1027L213.006 65.9625C213.06 65.9895 213.114 66.0435 213.114 66.1245V80.0043C213.114 80.0853 213.087 80.1393 213.006 80.1663C209.495 81.1384 205.877 81.6785 202.231 81.7055C198.586 81.6515 194.94 81.1384 191.403 80.1663C191.322 80.1393 191.295 80.0853 191.295 80.0043V74.9276C191.295 74.8466 191.376 74.7656 191.457 74.7656H195.994C196.075 74.7386 196.183 74.7926 196.21 74.8736C196.21 74.9006 196.21 74.9006 196.21 74.9276Z" fill="#7D7485"/>
</svg>
