<svg width="259" height="130" viewBox="0 0 259 130" fill="none" xmlns="http://www.w3.org/2000/svg">
<g clip-path="url(#clip0_2602_376)">
<path d="M59.3439 45.0371L46.9972 52.0331V73.868L40.185 77.764L33.3311 73.8649V66.0694L40.185 62.208L44.592 64.7296V58.4224L40.1466 55.9324L27.8032 63.0074V77.0026L40.1882 84.0397L52.5317 77.0026V55.1709L59.3854 51.2716L66.236 55.1709V62.9316L59.3854 66.8657L54.9401 64.322V70.5975L59.3439 73.1032L71.809 66.1073V52.0331L59.3439 45.0371Z" fill="#7D7485"/>
<path fill-rule="evenodd" clip-rule="evenodd" d="M131.78 75.3499H137.315V45.4194H131.78V75.3499ZM96.2011 54.0744C98.8241 54.0744 100.999 55.114 102.719 57.19C104.442 59.2661 105.3 61.8414 105.3 64.916C105.3 67.9906 104.439 70.5659 102.719 72.642C100.996 74.718 98.8241 75.7576 96.2011 75.7576C94.3434 75.7576 92.7293 75.1921 91.365 74.0577C90.0262 72.8978 89.043 71.3337 88.4121 69.3651V83.4392H82.8777V54.4789H88.4121V60.4637C89.0398 58.4951 90.0262 56.9436 91.365 55.8123C92.7325 54.6526 94.3434 54.0744 96.2011 54.0744ZM94.1898 70.7808C95.6918 70.7808 96.9633 70.2279 98.001 69.1218C99.0387 67.9906 99.5575 66.5876 99.5575 64.916C99.5575 63.2444 99.0387 61.8951 98.001 60.7892C96.9633 59.6579 95.6918 59.0891 94.1898 59.0891C92.5211 59.0891 91.144 59.6421 90.0485 60.7481C88.9565 61.8541 88.4089 63.2412 88.4089 64.9128C88.4089 66.5844 88.9565 67.9874 90.0485 69.1186C91.1408 70.2247 92.5211 70.7776 94.1898 70.7776V70.7808ZM106.77 64.916C106.77 67.9906 107.849 70.5659 110.008 72.642C112.167 74.718 114.86 75.7576 118.085 75.7576C121.311 75.7576 124.004 74.718 126.163 72.642C128.321 70.5659 129.401 67.9906 129.401 64.916C129.401 61.8414 128.321 59.2661 126.163 57.19C124.004 55.114 121.311 54.0744 118.085 54.0744C114.86 54.0744 112.167 55.114 110.008 57.19C107.849 59.2661 106.77 61.8414 106.77 64.916ZM114.108 69.1218C113.041 67.9906 112.51 66.5876 112.51 64.916C112.51 63.2444 113.041 61.8951 114.108 60.7892C115.174 59.6579 116.5 59.0891 118.085 59.0891C119.671 59.0891 120.997 59.6421 122.063 60.7481C123.13 61.8541 123.661 63.2412 123.661 64.9128C123.661 66.5844 123.13 67.9874 122.063 69.1186C120.997 70.2247 119.671 70.7776 118.085 70.7776C116.5 70.7776 115.174 70.2247 114.108 69.1186V69.1218ZM188.443 72.642C186.285 70.5659 185.205 67.9906 185.205 64.916C185.205 61.8414 186.285 59.2661 188.443 57.19C190.602 55.114 193.295 54.0744 196.521 54.0744C199.746 54.0744 202.439 55.114 204.598 57.19C206.757 59.2661 207.836 61.8414 207.836 64.916C207.836 67.9906 206.757 70.5659 204.598 72.642C202.439 74.718 199.746 75.7576 196.521 75.7576C193.295 75.7576 190.605 74.718 188.443 72.642ZM190.941 64.916C190.941 66.5876 191.473 67.9906 192.54 69.1218C193.606 70.2279 194.932 70.7808 196.517 70.7808C198.103 70.7808 199.429 70.2279 200.495 69.1218C201.562 67.9906 202.093 66.5876 202.093 64.916C202.093 63.2444 201.562 61.8541 200.495 60.7512C199.429 59.6453 198.103 59.0923 196.517 59.0923C194.932 59.0923 193.606 59.6579 192.54 60.7923C191.473 61.8983 190.941 63.2728 190.941 64.9191V64.916ZM222.565 54.0744C224.916 54.0744 226.802 54.8833 228.221 56.5012C229.669 58.1191 230.393 60.1825 230.393 62.6883V75.3468H224.859V63.6583C224.859 62.3091 224.423 61.2031 223.545 60.3404C222.671 59.4778 221.579 59.0449 220.266 59.0449C218.789 59.0449 217.588 59.4778 216.659 60.3404C215.73 61.2031 215.266 62.3091 215.266 63.6583V75.3468H209.732V54.4789H215.266V59.8191C215.814 58.0401 216.73 56.6371 218.014 55.6132C219.327 54.5894 220.842 54.0776 222.565 54.0776V54.0744ZM150.609 69.7853L156.265 54.4978H161.883L150.241 83.4581H144.623L147.576 76.0956L138.926 54.4978H144.912L150.609 69.7853ZM177.621 54.4789V59.7085C176.468 56.2958 173.621 54.4789 169.832 54.4789C164.112 54.4789 160.73 59.4083 160.73 64.5905C160.73 69.7727 164.086 75.1067 169.832 75.1067C173.621 75.1067 176.468 72.4113 177.621 68.9986V73.0021C177.621 74.7022 177.061 76.1019 175.94 77.208C174.819 78.314 173.454 78.8669 171.84 78.8669C169.653 78.8669 168.029 77.7895 166.962 75.6312L162.001 78.2192C162.93 79.9191 164.256 81.2778 165.979 82.3048C167.702 83.3286 169.656 83.8406 171.84 83.8406C175.066 83.8406 177.759 82.8041 179.918 80.7249C182.076 78.6489 183.156 76.0736 183.156 72.9989V54.4789H177.621ZM176.023 68.5562C174.956 69.6085 173.618 70.1331 172.007 70.1331C170.396 70.1331 169.137 69.6085 168.071 68.5562C167.004 67.4787 166.473 66.1578 166.473 64.5937C166.473 63.0295 167.004 61.7213 168.071 60.6691C169.137 59.6168 170.447 59.0923 172.007 59.0923C173.566 59.0923 174.96 59.6168 176.023 60.6691C177.09 61.6929 177.621 63.0011 177.621 64.5937C177.621 66.1863 177.09 67.5071 176.023 68.5562Z" fill="#7D7485"/>
</g>
<defs>
<clipPath id="clip0_2602_376">
<rect width="203.02" height="39.0423" fill="white" transform="translate(27.6062 45.0371)"/>
</clipPath>
</defs>
</svg>
