<svg width="32" height="32" viewBox="0 0 32 32" fill="none" xmlns="http://www.w3.org/2000/svg">
<g clip-path="url(#clip0_2631_38)">
<rect width="32" height="32" fill="white"/>
<rect width="32" height="32" rx="3" fill="#FF0000"/>
<path d="M4.2666 15.4667C4.2666 12.9651 4.772 10.7889 5.7828 8.93792C6.80509 7.08698 8.25237 5.66793 10.1247 4.68076C11.9969 3.6936 14.1793 3.20001 16.6719 3.20001C18.659 3.20001 20.4452 3.57581 22.0303 4.3274C23.6269 5.07899 24.9076 6.13908 25.8725 7.50765C26.8488 8.87622 27.4231 10.4635 27.5954 12.2696L21.5651 12.5893C21.2779 11.1759 20.6979 10.0821 19.8249 9.30811C18.9634 8.53408 17.8607 8.14706 16.5168 8.14706C15.2993 8.14706 14.2368 8.45555 13.3294 9.07253C12.4334 9.68951 11.7442 10.5533 11.2618 11.6638C10.7909 12.7632 10.5554 14.0308 10.5554 15.4667C10.5554 16.9362 10.7909 18.2206 11.2618 19.32C11.7327 20.4193 12.4162 21.2719 13.3121 21.8777C14.2195 22.4834 15.2993 22.7863 16.5513 22.7863C17.8952 22.7863 19.0725 22.4442 20.0833 21.7599C21.1056 21.0756 21.7718 20.066 22.082 18.7311V18.6133H16.5513V14.0532H27.7333V27.5314H22.7195L24.3218 23.207H23.6671C22.1853 26.2245 19.6354 27.7333 16.0172 27.7333C13.628 27.7333 11.549 27.2173 9.78006 26.1853C8.01116 25.1532 6.65002 23.7118 5.69666 21.8608C4.74329 20.0099 4.2666 17.8785 4.2666 15.4667Z" fill="white"/>
</g>
<defs>
<clipPath id="clip0_2631_38">
<rect width="32" height="32" fill="white"/>
</clipPath>
</defs>
</svg>
