<svg width="180" height="180" viewBox="0 0 180 180" fill="none" xmlns="http://www.w3.org/2000/svg">
<g clip-path="url(#clip0_2631_37)">
<rect width="180" height="180" fill="white"/>
<g clip-path="url(#clip1_2631_37)">
<rect width="180" height="180" fill="white"/>
<rect width="180" height="180" rx="16.875" fill="#FF0000"/>
<path d="M24 87.0001C24 72.9287 26.8429 60.6873 32.5286 50.2758C38.279 39.8643 46.42 31.8821 56.9515 26.3293C67.4831 20.7765 79.7592 18.0001 93.7797 18.0001C104.957 18.0001 115.004 20.1139 123.921 24.3416C132.902 28.5693 140.106 34.5323 145.533 42.2305C151.025 49.9287 154.256 58.8574 155.225 69.0165L121.304 70.8149C119.689 62.8643 116.426 56.712 111.515 52.3581C106.67 48.0042 100.467 45.8272 92.9075 45.8272C86.0587 45.8272 80.0822 47.5625 74.978 51.033C69.9383 54.5035 66.0617 59.3622 63.348 65.6091C60.699 71.7929 59.3744 78.9232 59.3744 87.0001C59.3744 95.2662 60.699 102.491 63.348 108.675C65.9971 114.859 69.8414 119.654 74.8811 123.062C79.9853 126.469 86.0587 128.173 93.1013 128.173C100.661 128.173 107.283 126.248 112.969 122.399C118.72 118.55 122.467 112.871 124.211 105.362V104.7H93.1013V79.0494H156V154.864H127.797L136.811 130.539H133.128C124.793 147.513 110.449 156 90.0969 156C76.6579 156 64.9633 153.097 55.0132 147.292C45.0631 141.487 37.4068 133.379 32.0441 122.967C26.6814 112.556 24 100.567 24 87.0001Z" fill="white"/>
</g>
</g>
<defs>
<clipPath id="clip0_2631_37">
<rect width="180" height="180" fill="white"/>
</clipPath>
<clipPath id="clip1_2631_37">
<rect width="180" height="180" fill="white"/>
</clipPath>
</defs>
</svg>
