<svg width="32" height="32" viewBox="0 0 32 32" fill="none" xmlns="http://www.w3.org/2000/svg">
<g clip-path="url(#clip0_2631_38)">
<rect width="32" height="32" rx="8" fill="black"/>
<path d="M4.50781 15.7575C4.50781 13.3598 4.99224 11.2738 5.96108 9.49974C6.94094 7.72563 8.32815 6.36548 10.1227 5.41929C11.9173 4.4731 14.0091 4 16.3982 4C18.3028 4 20.0148 4.3602 21.5342 5.08059C23.0645 5.80099 24.2921 6.81707 25.2169 8.12884C26.1527 9.4406 26.7032 10.962 26.8683 12.6931L21.0883 12.9996C20.813 11.6448 20.2571 10.5965 19.4203 9.85456C18.5946 9.11266 17.5377 8.74171 16.2496 8.74171C15.0825 8.74171 14.0641 9.0374 13.1944 9.62877C12.3356 10.2201 11.6751 11.0481 11.2127 12.1125C10.7613 13.1662 10.5356 14.3812 10.5356 15.7575C10.5356 17.166 10.7613 18.3972 11.2127 19.4509C11.6641 20.5046 12.3191 21.3218 13.1779 21.9024C14.0476 22.483 15.0825 22.7733 16.2826 22.7733C17.5707 22.7733 18.6992 22.4454 19.668 21.7895C20.6479 21.1336 21.2864 20.1659 21.5837 18.8864V18.7735H16.2826V14.4027H27.0004V27.3215H22.1947L23.7306 23.1765H23.103C21.6828 26.0688 19.2387 27.515 15.7706 27.515C13.4806 27.515 11.4879 27.0204 9.79242 26.0312C8.09694 25.042 6.79231 23.6604 5.87851 21.8862C4.96471 20.1121 4.50781 18.0692 4.50781 15.7575Z" fill="white"/>
</g>
<defs>
<clipPath id="clip0_2631_38">
<rect width="32" height="32" fill="white"/>
</clipPath>
</defs>
</svg>
